Coordinates
nRows=279
nColumns=2
inDegrees=yes
endheader
time	ankle_angle_r	
3.39315	 -0.381569	
3.42641	 -0.396259	
3.45968	 -0.405567	
3.49294	 -0.412429	
3.52621	 -0.419233	
3.55948	 -0.424075	
3.59274	 -0.426533	
3.62601	 -0.426640	
3.65927	 -0.423894	
3.69254	 -0.419588	
3.72581	 -0.413604	
3.75907	 -0.406329	
3.79234	 -0.403495	
3.8256	 -0.407537	
3.85887	 -0.412832	
3.89214	 -0.415633	
3.9254	 -0.416455	
3.95867	 -0.415378	
3.99194	 -0.413648	
4.0252	 -0.413398	
4.05847	 -0.414703	
4.09173	 -0.416309	
4.125	 -0.417615	
4.15827	 -0.420789	
4.19153	 -0.428274	
4.2248	 -0.437062	
4.25806	 -0.441407	
4.29133	 -0.439837	
4.3246	 -0.435163	
4.35786	 -0.430960	
4.39113	 -0.428610	
4.4244	 -0.427531	
4.45766	 -0.430048	
4.49093	 -0.437985	
4.52419	 -0.445363	
4.55746	 -0.445511	
4.59073	 -0.439771	
4.62399	 -0.433986	
4.65726	 -0.432048	
4.69052	 -0.433508	
4.72379	 -0.436925	
4.75706	 -0.443211	
4.79032	 -0.450384	
4.82359	 -0.452138	
4.85685	 -0.448847	
4.89012	 -0.447730	
4.92339	 -0.450139	
4.95665	 -0.452942	
4.98992	 -0.456228	
5.02319	 -0.460193	
5.05645	 -0.463844	
5.08972	 -0.466987	
5.12298	 -0.468733	
5.15625	 -0.468782	
5.18952	 -0.467201	
5.22278	 -0.462852	
5.25605	 -0.456968	
5.28931	 -0.452598	
5.32258	 -0.451435	
5.35585	 -0.454896	
5.38911	 -0.461414	
5.42238	 -0.464456	
5.45565	 -0.461260	
5.48891	 -0.456455	
5.52218	 -0.453629	
5.55544	 -0.453326	
5.58871	 -0.453582	
5.62198	 -0.449601	
5.65524	 -0.443398	
5.68851	 -0.443698	
5.72177	 -0.450804	
5.75504	 -0.456829	
5.78831	 -0.459389	
5.82157	 -0.463079	
5.85484	 -0.469478	
5.8881	 -0.471823	
5.92137	 -0.463108	
5.95464	 -0.447408	
5.9879	 -0.435237	
6.02117	 -0.432559	
6.05444	 -0.438803	
6.0877	 -0.446125	
6.12097	 -0.445004	
6.15423	 -0.434961	
6.1875	 -0.421482	
6.22077	 -0.409512	
6.25403	 -0.403541	
6.2873	 -0.404674	
6.32056	 -0.409728	
6.35383	 -0.414970	
6.3871	 -0.419167	
6.42036	 -0.424858	
6.45363	 -0.432025	
6.4869	 -0.433651	
6.52016	 -0.426080	
6.55343	 -0.415268	
6.58669	 -0.408460	
6.61996	 -0.408612	
6.65323	 -0.413789	
6.68649	 -0.417542	
6.71976	 -0.417136	
6.75302	 -0.418477	
6.78629	 -0.424326	
6.81956	 -0.427235	
6.85282	 -0.422045	
6.88609	 -0.413356	
6.91935	 -0.407834	
6.95262	 -0.407368	
6.98589	 -0.408825	
7.01915	 -0.410395	
7.05242	 -0.413717	
7.08569	 -0.416955	
7.11895	 -0.417096	
7.15222	 -0.414987	
7.18548	 -0.411427	
7.21875	 -0.409564	
7.25202	 -0.414373	
7.28528	 -0.421790	
7.31855	 -0.424891	
7.35181	 -0.425415	
7.38508	 -0.425456	
7.41835	 -0.424617	
7.45161	 -0.426321	
7.48488	 -0.432307	
7.51815	 -0.438971	
7.55141	 -0.442136	
7.58468	 -0.439920	
7.61794	 -0.433896	
7.65121	 -0.427370	
7.68448	 -0.424022	
7.71774	 -0.428077	
7.75101	 -0.438190	
7.78427	 -0.446599	
7.81754	 -0.449609	
7.85081	 -0.447842	
7.88407	 -0.442282	
7.91734	 -0.437839	
7.9506	 -0.437642	
7.98387	 -0.439415	
8.01714	 -0.442671	
8.0504	 -0.445875	
8.08367	 -0.445389	
8.11694	 -0.446024	
8.1502	 -0.454018	
8.18347	 -0.463063	
8.21673	 -0.465880	
8.25	 -0.463991	
8.28327	 -0.459968	
8.31653	 -0.457397	
8.3498	 -0.461253	
8.38306	 -0.470717	
8.41633	 -0.480064	
8.4496	 -0.484051	
8.48286	 -0.480743	
8.51613	 -0.474055	
8.5494	 -0.468200	
8.58266	 -0.461589	
8.61593	 -0.454891	
8.64919	 -0.452850	
8.68246	 -0.454289	
8.71573	 -0.454944	
8.74899	 -0.453527	
8.78226	 -0.449434	
8.81552	 -0.445327	
8.84879	 -0.444895	
8.88206	 -0.445748	
8.91532	 -0.444671	
8.94859	 -0.440691	
8.98185	 -0.433428	
9.01512	 -0.427760	
9.04839	 -0.429239	
9.08165	 -0.435429	
9.11492	 -0.440865	
9.14819	 -0.442516	
9.18145	 -0.439400	
9.21472	 -0.433603	
9.24798	 -0.429033	
9.28125	 -0.428571	
9.31452	 -0.430661	
9.34778	 -0.428980	
9.38105	 -0.423306	
9.41431	 -0.421499	
9.44758	 -0.423526	
9.48085	 -0.420970	
9.51411	 -0.412937	
9.54738	 -0.405329	
9.58065	 -0.400611	
9.61391	 -0.398719	
9.64718	 -0.399337	
9.68044	 -0.402195	
9.71371	 -0.407821	
9.74698	 -0.413179	
9.78024	 -0.414215	
9.81351	 -0.412976	
9.84677	 -0.412339	
9.88004	 -0.412868	
9.91331	 -0.416646	
9.94657	 -0.422452	
9.97984	 -0.424165	
10.0131	 -0.418941	
10.0464	 -0.409386	
10.0796	 -0.402608	
10.1129	 -0.405149	
10.1462	 -0.411123	
10.1794	 -0.409504	
10.2127	 -0.401983	
10.246	 -0.396017	
10.2792	 -0.393182	
10.3125	 -0.395098	
10.3458	 -0.404250	
10.379	 -0.416897	
10.4123	 -0.424767	
10.4456	 -0.422801	
10.4788	 -0.415659	
10.5121	 -0.413514	
10.5454	 -0.418760	
10.5786	 -0.426344	
10.6119	 -0.433982	
10.6452	 -0.441730	
10.6784	 -0.448717	
10.7117	 -0.452633	
10.745	 -0.450342	
10.7782	 -0.444897	
10.8115	 -0.443992	
10.8448	 -0.448720	
10.878	 -0.454278	
10.9113	 -0.455401	
10.9446	 -0.449001	
10.9778	 -0.440695	
11.0111	 -0.441345	
11.0444	 -0.452174	
11.0776	 -0.463615	
11.1109	 -0.466720	
11.1442	 -0.459129	
11.1774	 -0.446089	
11.2107	 -0.435930	
11.244	 -0.432857	
11.2772	 -0.437276	
11.3105	 -0.446107	
11.3437	 -0.452761	
11.377	 -0.455605	
11.4103	 -0.458010	
11.4435	 -0.459049	
11.4768	 -0.457234	
11.5101	 -0.454569	
11.5433	 -0.450868	
11.5766	 -0.446878	
11.6099	 -0.446871	
11.6431	 -0.450683	
11.6764	 -0.454663	
11.7097	 -0.457197	
11.7429	 -0.457234	
11.7762	 -0.456125	
11.8095	 -0.455237	
11.8427	 -0.450049	
11.876	 -0.437996	
11.9093	 -0.425002	
11.9425	 -0.420309	
11.9758	 -0.427989	
12.0091	 -0.439724	
12.0423	 -0.442902	
12.0756	 -0.435709	
12.1089	 -0.424349	
12.1421	 -0.414243	
12.1754	 -0.409119	
12.2087	 -0.407968	
12.2419	 -0.406658	
12.2752	 -0.404556	
12.3085	 -0.400985	
12.3417	 -0.394575	
12.375	 -0.388682	
12.4083	 -0.387077	
12.4415	 -0.389896	
12.4748	 -0.394420	
12.5081	 -0.394286	
12.5413	 -0.386964	
12.5746	 -0.380933	
12.6079	 -0.384209	
12.6411	 -0.394419	
